<svg width="150" height="24" viewBox="0 0 150 24" fill="none" xmlns="http://www.w3.org/2000/svg">
    <path
        d="M15.1893 8.90049H11.748C11.7167 8.90049 11.6867 8.91271 11.6646 8.93446C11.6425 8.95622 11.63 8.98573 11.63 9.0165V14.1649C11.6296 14.182 11.6332 14.1989 11.6406 14.2144C11.6479 14.2298 11.6589 14.2434 11.6725 14.254L13.6809 16.2234C13.7011 16.2446 13.729 16.257 13.7586 16.258C13.7881 16.2589 13.8168 16.2482 13.8384 16.2284L13.8434 16.2234C13.8609 16.2038 13.8706 16.1787 13.8708 16.1527V11.1068H15.2102C16.64 11.1048 18.0163 11.6417 19.0557 12.6072C19.5724 13.0792 19.9885 13.6475 20.2799 14.2789C20.5713 14.9104 20.7323 15.5925 20.7534 16.2857C20.7867 17.3693 20.4837 18.4371 19.8848 19.3473C19.2858 20.2574 18.4193 20.9667 17.4005 21.3807C16.3817 21.7948 15.2589 21.894 14.1813 21.6652C13.1037 21.4364 12.1225 20.8905 11.3682 20.0999L3.17421 12.0357C3.16287 12.0241 3.15654 12.0086 3.15654 11.9925C3.15654 11.9764 3.16287 11.9609 3.17421 11.9494L11.4078 3.84405C11.9124 3.32113 12.5206 2.90532 13.1948 2.62223C13.869 2.33913 14.595 2.19474 15.3281 2.19794C16.753 2.20454 18.1187 2.75908 19.1332 3.74299C20.1477 4.7269 20.7305 6.06209 20.757 7.46307C20.7581 7.48259 20.7642 7.50153 20.7748 7.5181C20.7854 7.53467 20.8 7.54835 20.8174 7.55786C21.495 7.93901 22.1212 8.40245 22.6812 8.93727C22.6964 8.95193 22.7152 8.96239 22.7358 8.96761C22.7564 8.97282 22.778 8.97261 22.7985 8.96698C22.8186 8.96071 22.8366 8.94906 22.8505 8.93333C22.8643 8.91759 22.8735 8.89839 22.8769 8.87785C23.0302 8.05313 23.0404 7.20883 22.9071 6.38076C22.6184 4.6228 21.7105 3.02058 20.3422 1.85421C18.9739 0.68784 17.2322 0.0315485 15.4217 7.6509e-05H15.3281C14.2956 -0.00452254 13.2729 0.198265 12.3228 0.596022C11.3727 0.993778 10.5153 1.57812 9.80291 2.31325L0.0314249 11.9196C0.011206 11.9415 0 11.97 0 11.9996C0 12.0291 0.011206 12.0576 0.0314249 12.0795L9.74249 21.6293C10.7886 22.721 12.1419 23.4813 13.6295 23.8131C15.1171 24.1449 16.6715 24.0331 18.0941 23.492C19.5168 22.9509 20.7432 22.005 21.6166 20.7752C22.49 19.5454 22.9709 18.0875 22.9977 16.5877C23.0165 15.5922 22.8312 14.6032 22.4529 13.6797C22.0746 12.7562 21.511 11.917 20.7958 11.2122C20.063 10.4815 19.1903 9.90057 18.228 9.50307C17.2658 9.10558 16.233 8.89934 15.1893 8.89624V8.90049Z"
        fill="#51A492" />
    <path fill-rule="evenodd" clip-rule="evenodd"
        d="M52.4092 8.36523C53.3107 8.34685 54.2072 8.51174 55.043 8.84961C55.8786 9.18746 56.6366 9.69173 57.2715 10.3311C57.9064 10.9705 58.405 11.7327 58.7363 12.5703C59.0676 13.4078 59.225 14.3039 59.1992 15.2041C59.2084 16.1005 59.0392 16.9895 58.7021 17.8203C58.365 18.6512 57.8667 19.4078 57.2354 20.0449C56.604 20.682 55.8526 21.188 55.0244 21.5332C54.1962 21.8783 53.3075 22.0556 52.4102 22.0557C51.5126 22.0557 50.6232 21.8784 49.7949 21.5332C48.9667 21.188 48.2153 20.682 47.584 20.0449C46.9526 19.4078 46.4543 18.6512 46.1172 17.8203C45.7802 16.9895 45.611 16.1004 45.6201 15.2041C45.5933 14.3037 45.7502 13.4073 46.0811 12.5693C46.412 11.7314 46.9099 10.9687 47.5449 10.3291C48.18 9.68943 48.9392 9.18521 49.7754 8.84766C50.6115 8.51017 51.5076 8.34597 52.4092 8.36523ZM52.4092 10.8818C51.8499 10.8819 51.2965 10.9952 50.7822 11.2148C50.2679 11.4345 49.8035 11.7562 49.417 12.1602C49.0305 12.5641 48.7296 13.0423 48.5332 13.5654C48.3369 14.0885 48.2491 14.6461 48.2744 15.2041C48.2483 15.7626 48.3362 16.321 48.5322 16.8447C48.7283 17.3683 49.0286 17.8467 49.415 18.251C49.8016 18.6554 50.2665 18.9775 50.7812 19.1973C51.2958 19.4169 51.8496 19.5296 52.4092 19.5293C52.969 19.5296 53.5234 19.417 54.0381 19.1973C54.5528 18.9775 55.0177 18.6554 55.4043 18.251C55.7907 17.8467 56.0911 17.3683 56.2871 16.8447C56.4831 16.321 56.5711 15.7626 56.5449 15.2041C56.5703 14.646 56.4815 14.0885 56.2852 13.5654C56.0888 13.0424 55.7887 12.564 55.4023 12.1602C55.016 11.7563 54.5513 11.4345 54.0371 11.2148C53.5228 10.9952 52.9685 10.8818 52.4092 10.8818Z"
        fill="#AFC4D6" />
    <path fill-rule="evenodd" clip-rule="evenodd"
        d="M121.461 8.37207C125.122 8.37211 127.776 11.3309 127.776 15.21C127.778 15.3967 127.768 15.584 127.747 15.7695L117.614 15.7559C117.68 16.8382 118.16 17.8536 118.954 18.5928C119.748 19.3319 120.796 19.7387 121.882 19.7275C122.606 19.7378 123.323 19.5813 123.977 19.2705C124.63 18.9595 125.204 18.5016 125.652 17.9336L127.384 19.5811C126.711 20.3866 125.863 21.0273 124.904 21.4551C123.945 21.8829 122.901 22.0863 121.852 22.0488C120.951 22.0652 120.056 21.8991 119.221 21.5605C118.386 21.222 117.629 20.718 116.994 20.0791C116.36 19.44 115.861 18.6785 115.529 17.8418C115.197 17.0051 115.038 16.1096 115.062 15.21C115.062 11.275 117.744 8.37207 121.461 8.37207ZM121.526 10.665C120.681 10.6672 119.86 10.9487 119.192 11.4668C118.529 11.9815 118.056 12.7006 117.843 13.5117H124.992C124.811 12.7211 124.372 12.0132 123.745 11.498C123.118 10.9829 122.338 10.6899 121.526 10.665Z"
        fill="#AFC4D6" />
    <path fill-rule="evenodd" clip-rule="evenodd"
        d="M33.6553 9.69727C34.8527 8.81815 36.3041 8.35217 37.79 8.37109C38.6919 8.35185 39.5884 8.51613 40.4248 8.85352C41.2614 9.191 42.0206 9.6954 42.6562 10.335C43.2919 10.9745 43.7913 11.7362 44.123 12.5742C44.4548 13.4123 44.6118 14.3092 44.5859 15.21C44.612 16.1104 44.4553 17.0069 44.124 17.8447C43.7926 18.6828 43.2934 19.4452 42.6582 20.085C42.0231 20.7245 41.2647 21.2286 40.4287 21.5664C39.5925 21.9043 38.6958 22.0695 37.7939 22.0508C36.25 22.0693 34.7451 21.5631 33.5264 20.6162L33.5693 21.7627H31V1.94434H33.6553V9.69727ZM37.79 10.8848C37.2301 10.8846 36.6759 10.9978 36.1611 11.2178C35.6464 11.4378 35.1815 11.7604 34.7949 12.165C34.4083 12.5698 34.108 13.0492 33.9121 13.5732C33.7163 14.0972 33.6289 14.6552 33.6553 15.2139C33.6292 15.7728 33.7169 16.3313 33.9131 16.8555C34.1093 17.3796 34.41 17.859 34.7969 18.2637C35.1836 18.6681 35.6483 18.9901 36.1631 19.21C36.6781 19.4299 37.2329 19.5432 37.793 19.543C38.3532 19.5427 38.908 19.4285 39.4229 19.208C39.9376 18.9875 40.4027 18.6657 40.7891 18.2607C41.1755 17.8556 41.4752 17.3759 41.6709 16.8516C41.8666 16.3273 41.9534 15.7689 41.9268 15.21C41.9528 14.6513 41.8651 14.0932 41.6689 13.5693C41.4728 13.0456 41.1728 12.5665 40.7861 12.1621C40.3994 11.7577 39.9338 11.4365 39.4189 11.2168C38.904 10.9971 38.35 10.8843 37.79 10.8848Z"
        fill="#AFC4D6" />
    <path fill-rule="evenodd" clip-rule="evenodd"
        d="M100.649 1.9502V21.7578H98.0801L98.1025 20.6357C96.8881 21.5706 95.3934 22.0693 93.8604 22.0508C92.9587 22.0692 92.0625 21.9034 91.2266 21.5654C90.3906 21.2274 89.632 20.7236 88.9971 20.084C88.3621 19.4443 87.8635 18.6826 87.5322 17.8447C87.201 17.0069 87.0442 16.1104 87.0703 15.21C87.0436 14.31 87.2 13.4139 87.5303 12.5762C87.8606 11.7383 88.3581 10.976 88.9922 10.3359C89.6262 9.69588 90.3836 9.19042 91.2188 8.85156C92.0539 8.51275 92.9494 8.34711 93.8506 8.36426C95.3373 8.34738 96.7889 8.81563 97.9854 9.69727V1.94434L100.649 1.9502ZM93.8506 10.8877C93.2913 10.8877 92.7379 11.0011 92.2236 11.2207C91.7093 11.4404 91.2449 11.7621 90.8584 12.166C90.4719 12.57 90.171 13.0481 89.9746 13.5713C89.7783 14.0944 89.6905 14.6519 89.7158 15.21C89.6897 15.7686 89.7767 16.3268 89.9727 16.8506C90.1687 17.3745 90.4699 17.8532 90.8564 18.2578C91.2429 18.6622 91.7072 18.9841 92.2217 19.2041C92.7364 19.4241 93.2907 19.5381 93.8506 19.5381C94.4104 19.5379 94.9649 19.4242 95.4795 19.2041C95.994 18.984 96.4583 18.6613 96.8447 18.2568C97.2311 17.8524 97.5315 17.3742 97.7275 16.8506C97.9236 16.3268 98.0113 15.7685 97.9854 15.21C98.0107 14.6519 97.9229 14.0944 97.7266 13.5713C97.5302 13.0481 97.2292 12.57 96.8428 12.166C96.4563 11.7621 95.9918 11.4403 95.4775 11.2207C94.9633 11.0011 94.4098 10.8877 93.8506 10.8877Z"
        fill="#AFC4D6" />
    <path fill-rule="evenodd" clip-rule="evenodd"
        d="M78.8564 8.36719C80.3796 8.35025 81.865 8.84287 83.0762 9.76562V8.64355H85.6475V21.7705H83.0762V20.6484C81.865 21.5712 80.3796 22.0628 78.8564 22.0459C77.9548 22.0643 77.0586 21.8995 76.2227 21.5615C75.3868 21.2236 74.6281 20.7197 73.9932 20.0801C73.3582 19.4404 72.8596 18.6786 72.5283 17.8408C72.1971 17.003 72.0404 16.1064 72.0664 15.2061C72.0406 14.3058 72.1979 13.4089 72.5293 12.5713C72.8607 11.7338 73.3593 10.9724 73.9941 10.333C74.629 9.69365 75.387 9.18941 76.2227 8.85156C77.0585 8.51369 77.955 8.34881 78.8564 8.36719ZM78.8584 10.8789C78.2982 10.8789 77.7435 10.9927 77.2285 11.2129C76.7137 11.4331 76.2489 11.7554 75.8623 12.1602C75.4757 12.565 75.1754 13.0441 74.9795 13.5684C74.7836 14.0926 74.6962 14.651 74.7227 15.21C74.6965 15.7686 74.7835 16.3268 74.9795 16.8506C75.1755 17.3744 75.4758 17.8533 75.8623 18.2578C76.2488 18.6623 76.7139 18.9841 77.2285 19.2041C77.7433 19.4241 78.2975 19.5381 78.8574 19.5381C79.4173 19.5383 79.9715 19.4249 80.4863 19.2051C81.0012 18.9852 81.4668 18.6633 81.8535 18.2588C82.2403 17.8542 82.5401 17.3746 82.7363 16.8506C82.9324 16.3267 83.0202 15.7687 82.9941 15.21C83.0205 14.651 82.9333 14.0926 82.7373 13.5684C82.5414 13.0441 82.2412 12.5651 81.8545 12.1602C81.4679 11.7553 81.0031 11.4331 80.4883 11.2129C79.9733 10.9927 79.4186 10.8789 78.8584 10.8789Z"
        fill="#AFC4D6" />
    <path
        d="M145.203 8.6416H149.395V11.0156H145.203L145.192 17.1699C145.124 17.7562 145.262 18.3481 145.583 18.8438C145.824 19.1089 146.136 19.3003 146.481 19.3955C146.683 19.4495 146.888 19.4895 147.095 19.5146C147.198 19.5261 147.303 19.5319 147.407 19.5322C147.896 19.5324 148.384 19.4768 148.86 19.3662L149.391 21.7666C148.719 21.9574 148.023 22.0513 147.324 22.0449C146.558 22.0559 145.798 21.9032 145.096 21.5967C145.035 21.5741 144.973 21.5559 144.912 21.5312C144.212 21.246 143.611 20.7583 143.189 20.1309C142.768 19.5035 142.543 18.7643 142.544 18.0088V5.01465H145.203V8.6416Z"
        fill="#AFC4D6" />
    <path
        d="M114.166 8.35254C114.512 8.35337 114.858 8.38033 115.199 8.43457L114.892 10.9883C114.554 10.905 114.206 10.8683 113.858 10.8789C113.131 10.9235 112.425 11.1488 111.806 11.5332C111.186 11.9177 110.673 12.45 110.311 13.082V21.7646H107.655V8.64355H110.225V10.1465C110.695 9.5609 111.297 9.09382 111.981 8.78223C112.666 8.47059 113.414 8.32338 114.166 8.35254Z"
        fill="#AFC4D6" />
    <path d="M105.429 21.7637H102.773V8.64355H105.429V21.7637Z" fill="#AFC4D6" />
    <path
        d="M63.4854 13.668L68.9609 8.64551H72.6934L66.1367 14.5645L73.543 21.7627H70.002L63.4863 15.3418V21.7627H60.8281V1.94434H63.4854V13.668Z"
        fill="#AFC4D6" />
    <path
        d="M131.906 13.668L137.38 8.64551H141.123L134.561 14.5645L141.966 21.7627H138.417L131.901 15.3418V21.7627H129.251V1.94434H131.906V13.668Z"
        fill="#AFC4D6" />
    <path
        d="M104.095 3.34473C104.325 3.34379 104.554 3.38801 104.767 3.47559C104.98 3.5632 105.173 3.69277 105.336 3.85547C105.499 4.01813 105.628 4.21114 105.716 4.42383C105.804 4.63655 105.848 4.86467 105.847 5.09473C105.847 5.32356 105.803 5.5505 105.715 5.76172C105.627 5.97293 105.497 6.16455 105.334 6.3252C105.171 6.48578 104.977 6.61224 104.765 6.69727C104.552 6.7823 104.324 6.82417 104.095 6.82031C103.867 6.824 103.641 6.78164 103.43 6.69629C103.218 6.6109 103.026 6.4842 102.865 6.32324C102.704 6.16231 102.577 5.97073 102.491 5.75977C102.406 5.54875 102.364 5.32233 102.368 5.09473C102.364 4.86606 102.406 4.6391 102.491 4.42676C102.576 4.21434 102.702 4.02036 102.863 3.85742C103.024 3.69446 103.216 3.56559 103.428 3.47754C103.639 3.38954 103.866 3.34417 104.095 3.34473Z"
        fill="#AFC4D6" />
</svg>